<?xml version="1.0" ?>
<svg width="800px" height="800px" viewBox="0 0 120 120" version="1.1" xml:space="preserve" xmlns="http://www.w3.org/2000/svg">
	<style type="text/css">
		.st0{fill:#E9F6FF;}
		.st1{fill:#FF7F8A;}
		.st2{fill:#FFC54D;}
		.st3{fill:#E8B04B;}
		.st4{fill:#FFFFFF;}
	</style>
	<g>
		<path class="st0"  d="M94,17v86c0,2.4-1.9,4.3-4.3,4.3H30.3c-2.4,0-4.3-1.9-4.3-4.3V17c0-2.4,1.9-4.3,4.3-4.3h59.3   C92.1,12.7,94,14.7,94,17z"/>
		<g>
			<polygon class="st1" points="89.2,90.8 81,94.9 72.7,90.8 62.6,111.2 68.9,110.5 72.2,116 81,98.5 89.8,116 93.1,110.5     99.4,111.2   "/>
			<circle class="st2" cx="81" cy="91.2" r="13.4"/>
			<circle class="st3" cx="81" cy="91.2" r="10.6"/>
		</g>
		<g>
		<path class="st4" d="M47.4,44.9h-9.9c-0.8,0-1.4,0.6-1.4,1.4s0.6,1.4,1.4,1.4h9.9c0.8,0,1.4-0.6,1.4-1.4S48.3,44.9,47.4,44.9z"/>
			<path class="st4" d="M67.4,38.1H37.6c-0.8,0-1.4,0.6-1.4,1.4s0.6,1.4,1.4,1.4h29.9c0.8,0,1.4-0.6,1.4-1.4S68.3,38.1,67.4,38.1z"/>
			<path class="st4" d="M67.4,32.3H37.6c-0.8,0-1.4,0.6-1.4,1.4c0,0.8,0.6,1.4,1.4,1.4h29.9c0.8,0,1.4-0.6,1.4-1.4    S68.3,32.3,67.4,32.3z"/>
			<path class="st4" d="M37.6,28.4h29.9c0.8,0,1.4-0.6,1.4-1.4s-0.6-1.4-1.4-1.4H37.6c-0.8,0-1.4,0.6-1.4,1.4S36.8,28.4,37.6,28.4z"/>
		</g>
		<g>
		<path class="st4" d="M47.4,76.4h-9.9c-0.8,0-1.4,0.6-1.4,1.4s0.6,1.4,1.4,1.4h9.9c0.8,0,1.4-0.6,1.4-1.4S48.3,76.4,47.4,76.4z"/>
			<path class="st4" d="M67.4,69.6H37.6c-0.8,0-1.4,0.6-1.4,1.4s0.6,1.4,1.4,1.4h29.9c0.8,0,1.4-0.6,1.4-1.4S68.3,69.6,67.4,69.6z"/>
			<path class="st4" d="M67.4,63.8H37.6c-0.8,0-1.4,0.6-1.4,1.4s0.6,1.4,1.4,1.4h29.9c0.8,0,1.4-0.6,1.4-1.4S68.3,63.8,67.4,63.8z"/>
			<path class="st4" d="M37.6,59.9h29.9c0.8,0,1.4-0.6,1.4-1.4s-0.6-1.4-1.4-1.4H37.6c-0.8,0-1.4,0.6-1.4,1.4S36.8,59.9,37.6,59.9z"/>
		</g>
	</g>
</svg>
