<svg width="85" height="30" xmlns="http://www.w3.org/2000/svg">
    <style>
        path {
            animation: scratch .0625s forwards;
            stroke: #2a7ae2;
            stroke-width: 5;
            stroke-linecap: round;
            fill: transparent;
            opacity: 0;
        }
        @keyframes scratch {
            from { opacity: 0; }
            to   { opacity: 1; }
        }
        path:nth-of-type(2){animation-delay:.0125s}
        path:nth-of-type(3){animation-delay:.025s}
        path:nth-of-type(4){animation-delay:.0375s}
        path:nth-of-type(5){animation-delay:.05s}
        path:nth-of-type(6){animation-delay:.0625s}
        path:nth-of-type(7){animation-delay:.075s}
        path:nth-of-type(8){animation-delay:.0875s}
        path:nth-of-type(9){animation-delay:.1s}
        path:nth-of-type(10){animation-delay:.1125s}
        path:nth-of-type(11){animation-delay:.125s}
        path:nth-of-type(12){animation-delay:.1375s}
        path:nth-of-type(13){animation-delay:.15s}
        path:nth-of-type(14){animation-delay:.1625s}
        path:nth-of-type(15){animation-delay:.175s}
        path:nth-of-type(16){animation-delay:.1875s}
        path:nth-of-type(17){animation-delay:.2125s}
        path:nth-of-type(18){animation-delay:.225s}
        path:nth-of-type(19){animation-delay:.2375s}
        path:nth-of-type(20){animation-delay:.25s}
        path:nth-of-type(21){animation-delay:.2625s}
        path:nth-of-type(22){animation-delay:.275s}
        path:nth-of-type(23){animation-delay:.2875s}
        path:nth-of-type(24){animation-delay:.3s}
    </style>
    <path d="M5 8 L25 3"/>
    <path d="M25 3 L5 15"/>
    <path d="M5 15 L30 5"/>
    <path d="M30 5 L4 23"/>
    <path d="M4 23 L35 3"/>
    <path d="M35 3 L6 27"/>
    <path d="M6 27 L42 5"/>
    <path d="M42 5 L16 27"/>
    <path d="M16 27 L47 4"/>
    <path d="M47 4 L24 26"/>
    <path d="M24 26 L53 5"/>
    <path d="M53 5 L31 28"/>
    <path d="M31 28 L59 5"/>
    <path d="M59 5 L39 27"/>
    <path d="M39 27 L66 4"/>
    <path d="M66 4 L46 26"/>
    <path d="M46 26 L72 5"/>
    <path d="M72 5 L52 28"/>
    <path d="M52 28 L79 5"/>
    <path d="M79 5 L60 27"/>
    <path d="M60 27 L78 15"/>
    <path d="M78 15 L60 26"/>
    <path d="M60 26 L80 20"/>
    <path d="M80 20 L66 27"/>
</svg>
